<svg width="4500" height="1080" viewBox="0 0 4500 1080" fill="none" xmlns="http://www.w3.org/2000/svg">
<g clip-path="url(#clip0_586_935)">
<path d="M4500 0H0V1080H4500V0Z" fill="#9AC3EF"/>
<path d="M4500 827.46C4384 858.96 4268 890.28 4223 821.52C4177.5 752.58 4203 583.2 4100.5 583.74C3997.5 584.28 3767 754.56 3697 762.48C3626.5 770.22 3717 615.78 3645 586.44C3573 557.28 3338.5 653.4 3222 666.54C3105 679.86 3105.5 610.38 3180.5 536.22C3255.5 462.06 3405 383.4 3366 361.62C3327 339.84 3099.5 374.94 3010.5 370.08C2921 365.4 2970.5 320.94 2946 293.58C2922 266.22 2824.5 255.96 2751.5 238.68C2679 221.58 2631 197.28 2543.5 173.52C2456.5 149.94 2330 126.54 2266.5 97.56C2203 68.76 2202 34.38 2201.5 0H4500V827.46Z" fill="#B97BF1"/>
<path d="M4500 413.82C4442 429.48 4384 445.14 4361.5 410.76C4339 376.2 4351.5 291.6 4300 291.78C4249 292.14 4133.5 377.28 4098.5 381.24C4063.5 385.2 4108.5 307.8 4072.5 293.22C4036.5 278.64 3919.5 326.7 3861 333.36C3802.5 340.02 3802.5 305.1 3840 268.2C3877.5 231.12 3952.5 191.7 3933 180.9C3913.5 169.92 3800 187.38 3755 185.04C3710.5 182.7 3735 160.56 3723 146.88C3711 133.2 3662 127.98 3626 119.34C3589.5 110.7 3565.5 98.64 3522 86.76C3478 74.88 3415 63.18 3383 48.78C3351.5 34.38 3351 17.28 3350.5 0H4500V413.82Z" fill="#B97BF1"/>
<path d="M0 252.54C76.5 329.22 153 405.72 209 459.9C265 514.08 301 545.94 367.5 543.42C434 541.08 531 504.54 627.5 484.2C724 463.86 820 459.72 887.5 471.24C955.5 482.58 995 509.58 1093.5 509.76C1192 509.76 1349 482.94 1475.5 480.42C1601.5 477.9 1697 499.68 1673 546.48C1649 593.1 1506 664.74 1580 687.42C1654.5 709.92 1946 683.64 1979 706.14C2012 728.64 1787 799.92 1790.5 835.56C1794 871.2 2025.5 871.02 2146 889.56C2266 908.1 2275 945.36 2282 980.28C2288.5 1015.02 2293.5 1047.6 2298.5 1080H0V252.54Z" fill="#B97BF1"/>
<path d="M0 666.18C38.5 704.52 76.5 742.86 104.5 770.04C132.5 797.04 150.5 812.88 183.5 811.8C217 810.54 265.5 792.18 314 782.1C362 772.02 410 769.86 444 775.62C477.5 781.38 497.5 794.88 547 794.88C596 794.88 674.5 781.56 737.5 780.3C801 779.04 848.5 789.84 836.5 813.24C824.5 836.64 753 872.46 790 883.62C827 894.96 973 881.82 989.5 892.98C1006 904.32 893.5 939.96 895.5 957.78C897 975.6 1013 975.6 1073 984.78C1133 994.14 1137.5 1012.68 1141 1030.14C1144.5 1047.6 1147 1063.8 1149.5 1080H0V666.18Z" fill="#B97BF1"/>
</g>
<defs>
<clipPath id="clip0_586_935">
<rect width="4500" height="1080" fill="white"/>
</clipPath>
</defs>
</svg>
