<svg width="4500" height="1080" viewBox="0 0 4500 1080" fill="none" xmlns="http://www.w3.org/2000/svg">
<g clip-path="url(#clip0_500_865)">
<path d="M4500 0H0V1080H4500V0Z" fill="#FFA41C"/>
<path d="M4500 681.48C4277 690.66 4054.5 699.84 3915 648.18C3776 596.34 3720 483.48 3665.5 413.64C3610.5 343.62 3557 316.44 3375.5 294.12C3194 271.8 2885 254.52 2736 206.28C2586.5 158.22 2597 79.02 2607 0H4500V681.48Z" fill="#1298F1"/>
<path d="M0 398.52C157.5 459.18 315 519.84 485 542.52C655.5 565.02 838.5 549.54 1046.5 561.6C1254 573.66 1487 613.44 1531.5 679.5C1575.5 745.56 1431 838.08 1460 909.18C1488.5 980.46 1691 1030.14 1893 1080H0V398.52Z" fill="#1298F1"/>
</g>
<defs>
<clipPath id="clip0_500_865">
<rect width="4500" height="1080" fill="white"/>
</clipPath>
</defs>
</svg>
