<svg width="1920" height="1329" viewBox="0 0 1920 1329" fill="none" xmlns="http://www.w3.org/2000/svg">
    <g clip-path="url(#clip0_326_722)">
        <path
            d="M0 95.245L45.8667 97.46C91.7333 99.675 183.467 104.105 274.773 104.105C366.293 104.105 457.173 99.675 548.693 106.32C640 112.965 731.733 130.685 823.04 126.255C914.56 121.825 1005.44 95.245 1096.96 88.6C1188.27 81.955 1280 95.245 1371.31 106.32C1462.83 117.395 1553.71 126.255 1645.23 139.545C1736.53 152.835 1828.27 170.555 1874.13 179.415L1920 188.275V0H1874.13C1828.27 0 1736.53 0 1645.23 0C1553.71 0 1462.83 0 1371.31 0C1280 0 1188.27 0 1096.96 0C1005.44 0 914.56 0 823.04 0C731.733 0 640 0 548.693 0C457.173 0 366.293 0 274.773 0C183.467 0 91.7333 0 45.8667 0H0V95.245Z"
            fill="#B97BF1" />
        <path
            d="M0 480.655L45.8667 474.01C91.7333 467.365 183.467 454.075 274.773 469.58C366.293 485.085 457.173 529.385 548.693 555.965C640 582.545 731.733 591.405 823.04 567.04C914.56 542.675 1005.44 485.085 1096.96 469.58C1188.27 454.075 1280 480.655 1371.31 460.72C1462.83 440.785 1553.71 374.335 1645.23 394.27C1736.53 414.205 1828.27 520.525 1874.13 573.685L1920 626.845V183.845L1874.13 174.985C1828.27 166.125 1736.53 148.405 1645.23 135.115C1553.71 121.825 1462.83 112.965 1371.31 101.89C1280 90.815 1188.27 77.525 1096.96 84.17C1005.44 90.815 914.56 117.395 823.04 121.825C731.733 126.255 640 108.535 548.693 101.89C457.173 95.245 366.293 99.675 274.773 99.675C183.467 99.675 91.7333 95.245 45.8667 93.03L0 90.815V480.655Z"
            fill="#93A6FC" />
        <path
            d="M0 680.005L45.8667 668.93C91.7333 657.855 183.467 635.705 274.773 640.135C366.293 644.565 457.173 675.575 548.693 699.94C640 724.305 731.733 742.025 823.04 715.445C914.56 688.865 1005.44 617.985 1096.96 609.125C1188.27 600.265 1280 653.425 1371.31 651.21C1462.83 648.995 1553.71 591.405 1645.23 611.34C1736.53 631.275 1828.27 728.735 1874.13 777.465L1920 826.195V622.415L1874.13 569.255C1828.27 516.095 1736.53 409.775 1645.23 389.84C1553.71 369.905 1462.83 436.355 1371.31 456.29C1280 476.225 1188.27 449.645 1096.96 465.15C1005.44 480.655 914.56 538.245 823.04 562.61C731.733 586.975 640 578.115 548.693 551.535C457.173 524.955 366.293 480.655 274.773 465.15C183.467 449.645 91.7333 462.935 45.8667 469.58L0 476.225V680.005Z"
            fill="#9AC3EF" />
        <path
            d="M0 972.385L45.8667 956.88C91.7333 941.375 183.467 910.365 274.773 886C366.293 861.635 457.173 843.915 548.693 852.775C640 861.635 731.733 897.075 823.04 892.645C914.56 888.215 1005.44 843.915 1096.96 857.205C1188.27 870.495 1280 941.375 1371.31 943.59C1462.83 945.805 1553.71 879.355 1645.23 881.57C1736.53 883.785 1828.27 954.665 1874.13 990.105L1920 1025.54V821.765L1874.13 773.035C1828.27 724.305 1736.53 626.845 1645.23 606.91C1553.71 586.975 1462.83 644.565 1371.31 646.78C1280 648.995 1188.27 595.835 1096.96 604.695C1005.44 613.555 914.56 684.435 823.04 711.015C731.733 737.595 640 719.875 548.693 695.51C457.173 671.145 366.293 640.135 274.773 635.705C183.467 631.275 91.7333 653.425 45.8667 664.5L0 675.575V972.385Z"
            fill="#9AC3EF" />
        <path
            d="M0 1118.57L45.8667 1123.01C91.7333 1127.43 183.467 1136.29 274.773 1145.15C366.293 1154.01 457.173 1162.88 548.693 1167.3C640 1171.73 731.733 1171.73 823.04 1158.45C914.56 1145.15 1005.44 1118.57 1096.96 1129.65C1188.27 1140.73 1280 1189.45 1371.31 1202.74C1462.83 1216.04 1553.71 1193.89 1645.23 1198.32C1736.53 1202.74 1828.27 1233.76 1874.13 1249.26L1920 1264.77V1021.11L1874.13 985.675C1828.27 950.235 1736.53 879.355 1645.23 877.14C1553.71 874.925 1462.83 941.375 1371.31 939.16C1280 936.945 1188.27 866.065 1096.96 852.775C1005.44 839.485 914.56 883.785 823.04 888.215C731.733 892.645 640 857.205 548.693 848.345C457.173 839.485 366.293 857.205 274.773 881.57C183.467 905.935 91.7333 936.945 45.8667 952.45L0 967.955V1118.57Z"
            fill="#93A6FC" />
        <path
            d="M0 1331.22H45.8667C91.7333 1331.22 183.467 1331.22 274.773 1331.22C366.293 1331.22 457.173 1331.22 548.693 1331.22C640 1331.22 731.733 1331.22 823.04 1331.22C914.56 1331.22 1005.44 1331.22 1096.96 1331.22C1188.27 1331.22 1280 1331.22 1371.31 1331.22C1462.83 1331.22 1553.71 1331.22 1645.23 1331.22C1736.53 1331.22 1828.27 1331.22 1874.13 1331.22H1920V1260.34L1874.13 1244.83C1828.27 1229.33 1736.53 1198.32 1645.23 1193.89C1553.71 1189.46 1462.83 1211.61 1371.31 1198.32C1280 1185.03 1188.27 1136.3 1096.96 1125.22C1005.44 1114.15 914.56 1140.73 823.04 1154.02C731.733 1167.31 640 1167.31 548.693 1162.88C457.173 1158.45 366.293 1149.59 274.773 1140.73C183.467 1131.87 91.7333 1123.01 45.8667 1118.58L0 1114.15V1331.22Z"
            fill="#B97BF1" />
    </g>
    <defs>
        <clipPath id="clip0_326_722">
            <rect width="1920" height="1329" fill="white" />
        </clipPath>
    </defs>
</svg>