<svg width="4500" height="1080" viewBox="0 0 4500 1080" fill="none" xmlns="http://www.w3.org/2000/svg">
<g clip-path="url(#clip0_500_839)">
<path d="M0 120.6L68.5 129.6C136.5 138.6 273.5 156.6 410 171C546.5 185.4 683.5 196.2 819 185.4C955 174.6 1090 142.2 1226 136.8C1361.5 131.4 1498.5 153 1635 162C1771.5 171 1908.5 167.4 2045 167.4C2181.5 167.4 2318.5 171 2455 178.2C2591.5 185.4 2728.5 196.2 2865 194.4C3001.5 192.6 3138.5 178.2 3274 158.4C3410 138.6 3545 113.4 3681 109.8C3816.5 106.2 3953.5 124.2 4090 122.4C4226.5 120.6 4363.5 99 4431.5 88.2L4500 77.4V0H4431.5C4363.5 0 4226.5 0 4090 0C3953.5 0 3816.5 0 3681 0C3545 0 3410 0 3274 0C3138.5 0 3001.5 0 2865 0C2728.5 0 2591.5 0 2455 0C2318.5 0 2181.5 0 2045 0C1908.5 0 1771.5 0 1635 0C1498.5 0 1361.5 0 1226 0C1090 0 955 0 819 0C683.5 0 546.5 0 410 0C273.5 0 136.5 0 68.5 0H0V120.6Z" fill="#FFA41C"/>
<path d="M0 293.4L68.5 289.8C136.5 286.2 273.5 279 410 277.2C546.5 275.4 683.5 279 819 273.6C955 268.2 1090 253.8 1226 252C1361.5 250.2 1498.5 261 1635 259.2C1771.5 257.4 1908.5 243 2045 252C2181.5 261 2318.5 293.4 2455 307.8C2591.5 322.2 2728.5 318.6 2865 309.6C3001.5 300.6 3138.5 286.2 3274 279C3410 271.8 3545 271.8 3681 264.6C3816.5 257.4 3953.5 243 4090 235.8C4226.5 228.6 4363.5 228.6 4431.5 228.6H4500V73.7998L4431.5 84.5998C4363.5 95.3998 4226.5 117 4090 118.8C3953.5 120.6 3816.5 102.6 3681 106.2C3545 109.8 3410 135 3274 154.8C3138.5 174.6 3001.5 189 2865 190.8C2728.5 192.6 2591.5 181.8 2455 174.6C2318.5 167.4 2181.5 163.8 2045 163.8C1908.5 163.8 1771.5 167.4 1635 158.4C1498.5 149.4 1361.5 127.8 1226 133.2C1090 138.6 955 171 819 181.8C683.5 192.6 546.5 181.8 410 167.4C273.5 153 136.5 135 68.5 126L0 117V293.4Z" fill="#FF7A5B"/>
<path d="M0 682.2L68.5 660.6C136.5 639 273.5 595.8 410 576C546.5 556.2 683.5 559.8 819 559.8C955 559.8 1090 556.2 1226 547.2C1361.5 538.2 1498.5 523.8 1635 536.4C1771.5 549 1908.5 588.6 2045 615.6C2181.5 642.6 2318.5 657 2455 628.2C2591.5 599.4 2728.5 527.4 2865 504C3001.5 480.6 3138.5 505.8 3274 513C3410 520.2 3545 509.4 3681 513C3816.5 516.6 3953.5 534.6 4090 525.6C4226.5 516.6 4363.5 480.6 4431.5 462.6L4500 444.6V225H4431.5C4363.5 225 4226.5 225 4090 232.2C3953.5 239.4 3816.5 253.8 3681 261C3545 268.2 3410 268.2 3274 275.4C3138.5 282.6 3001.5 297 2865 306C2728.5 315 2591.5 318.6 2455 304.2C2318.5 289.8 2181.5 257.4 2045 248.4C1908.5 239.4 1771.5 253.8 1635 255.6C1498.5 257.4 1361.5 246.6 1226 248.4C1090 250.2 955 264.6 819 270C683.5 275.4 546.5 271.8 410 273.6C273.5 275.4 136.5 282.6 68.5 286.2L0 289.8V682.2Z" fill="#FF648F"/>
<path d="M0 844.2L68.5 822.6C136.5 801 273.5 757.8 410 738C546.5 718.2 683.5 721.8 819 734.4C955 747 1090 768.6 1226 766.8C1361.5 765 1498.5 739.8 1635 754.2C1771.5 768.6 1908.5 822.6 2045 838.8C2181.5 855 2318.5 833.4 2455 808.2C2591.5 783 2728.5 754.2 2865 739.8C3001.5 725.4 3138.5 725.4 3274 716.4C3410 707.4 3545 689.4 3681 696.6C3816.5 703.8 3953.5 736.2 4090 725.4C4226.5 714.6 4363.5 660.6 4431.5 633.6L4500 606.6V441L4431.5 459C4363.5 477 4226.5 513 4090 522C3953.5 531 3816.5 513 3681 509.4C3545 505.8 3410 516.6 3274 509.4C3138.5 502.2 3001.5 477 2865 500.4C2728.5 523.8 2591.5 595.8 2455 624.6C2318.5 653.4 2181.5 639 2045 612C1908.5 585 1771.5 545.4 1635 532.8C1498.5 520.2 1361.5 534.6 1226 543.6C1090 552.6 955 556.2 819 556.2C683.5 556.2 546.5 552.6 410 572.4C273.5 592.2 136.5 635.4 68.5 657L0 678.6V844.2Z" fill="#ED67C2"/>
<path d="M0 1081.8H68.5C136.5 1081.8 273.5 1081.8 410 1081.8C546.5 1081.8 683.5 1081.8 819 1081.8C955 1081.8 1090 1081.8 1226 1081.8C1361.5 1081.8 1498.5 1081.8 1635 1081.8C1771.5 1081.8 1908.5 1081.8 2045 1081.8C2181.5 1081.8 2318.5 1081.8 2455 1081.8C2591.5 1081.8 2728.5 1081.8 2865 1081.8C3001.5 1081.8 3138.5 1081.8 3274 1081.8C3410 1081.8 3545 1081.8 3681 1081.8C3816.5 1081.8 3953.5 1081.8 4090 1081.8C4226.5 1081.8 4363.5 1081.8 4431.5 1081.8H4500V603L4431.5 630C4363.5 657 4226.5 711 4090 721.8C3953.5 732.6 3816.5 700.2 3681 693C3545 685.8 3410 703.8 3274 712.8C3138.5 721.8 3001.5 721.8 2865 736.2C2728.5 750.6 2591.5 779.4 2455 804.6C2318.5 829.8 2181.5 851.4 2045 835.2C1908.5 819 1771.5 765 1635 750.6C1498.5 736.2 1361.5 761.4 1226 763.2C1090 765 955 743.4 819 730.8C683.5 718.2 546.5 714.6 410 734.4C273.5 754.2 136.5 797.4 68.5 819L0 840.6V1081.8Z" fill="#B97BF1"/>
</g>
<defs>
<clipPath id="clip0_500_839">
<rect width="4500" height="1080" fill="white"/>
</clipPath>
</defs>
</svg>
