<svg width="1920" height="915" viewBox="0 0 1920 915" fill="none" xmlns="http://www.w3.org/2000/svg">
    <g clip-path="url(#clip0_295_920)">
        <path
            d="M0 102.175L29.2267 109.8C58.24 117.425 116.693 132.675 174.933 144.875C233.173 157.075 291.627 166.225 349.44 157.075C407.467 147.925 465.067 120.475 523.093 115.9C580.907 111.325 639.36 129.625 697.6 137.25C755.84 144.875 814.293 141.825 872.533 141.825C930.773 141.825 989.227 144.875 1047.47 150.975C1105.71 157.075 1164.16 166.225 1222.4 164.7C1280.64 163.175 1339.09 150.975 1396.91 134.2C1454.93 117.425 1512.53 96.075 1570.56 93.025C1628.37 89.975 1686.83 105.225 1745.07 103.7C1803.31 102.175 1861.76 83.875 1890.77 74.725L1920 65.575V0H1890.77C1861.76 0 1803.31 0 1745.07 0C1686.83 0 1628.37 0 1570.56 0C1512.53 0 1454.93 0 1396.91 0C1339.09 0 1280.64 0 1222.4 0C1164.16 0 1105.71 0 1047.47 0C989.227 0 930.773 0 872.533 0C814.293 0 755.84 0 697.6 0C639.36 0 580.907 0 523.093 0C465.067 0 407.467 0 349.44 0C291.627 0 233.173 0 174.933 0C116.693 0 58.24 0 29.2267 0H0V102.175Z"
            fill="#FFA41C" />
        <path
            d="M0 248.575L29.2267 245.525C58.24 242.475 116.693 236.375 174.933 234.85C233.173 233.325 291.627 236.375 349.44 231.8C407.467 227.225 465.067 215.025 523.093 213.5C580.907 211.975 639.36 221.125 697.6 219.6C755.84 218.075 814.293 205.875 872.533 213.5C930.773 221.125 989.227 248.575 1047.47 260.775C1105.71 272.975 1164.16 269.925 1222.4 262.3C1280.64 254.675 1339.09 242.475 1396.91 236.375C1454.93 230.275 1512.53 230.275 1570.56 224.175C1628.37 218.075 1686.83 205.875 1745.07 199.775C1803.31 193.675 1861.76 193.675 1890.77 193.675H1920V62.525L1890.77 71.675C1861.76 80.825 1803.31 99.125 1745.07 100.65C1686.83 102.175 1628.37 86.925 1570.56 89.975C1512.53 93.025 1454.93 114.375 1396.91 131.15C1339.09 147.925 1280.64 160.125 1222.4 161.65C1164.16 163.175 1105.71 154.025 1047.47 147.925C989.227 141.825 930.773 138.775 872.533 138.775C814.293 138.775 755.84 141.825 697.6 134.2C639.36 126.575 580.907 108.275 523.093 112.85C465.067 117.425 407.467 144.875 349.44 154.025C291.627 163.175 233.173 154.025 174.933 141.825C116.693 129.625 58.24 114.375 29.2267 106.75L0 99.125V248.575Z"
            fill="#FF7A5B" />
        <path
            d="M0 577.975L29.2267 559.675C58.24 541.375 116.693 504.775 174.933 488C233.173 471.225 291.627 474.275 349.44 474.275C407.467 474.275 465.067 471.225 523.093 463.6C580.907 455.975 639.36 443.775 697.6 454.45C755.84 465.125 814.293 498.675 872.533 521.55C930.773 544.425 989.227 556.625 1047.47 532.225C1105.71 507.825 1164.16 446.825 1222.4 427C1280.64 407.175 1339.09 428.525 1396.91 434.625C1454.93 440.725 1512.53 431.575 1570.56 434.625C1628.37 437.675 1686.83 452.925 1745.07 445.3C1803.31 437.675 1861.76 407.175 1890.77 391.925L1920 376.675V190.625H1890.77C1861.76 190.625 1803.31 190.625 1745.07 196.725C1686.83 202.825 1628.37 215.025 1570.56 221.125C1512.53 227.225 1454.93 227.225 1396.91 233.325C1339.09 239.425 1280.64 251.625 1222.4 259.25C1164.16 266.875 1105.71 269.925 1047.47 257.725C989.227 245.525 930.773 218.075 872.533 210.45C814.293 202.825 755.84 215.025 697.6 216.55C639.36 218.075 580.907 208.925 523.093 210.45C465.067 211.975 407.467 224.175 349.44 228.75C291.627 233.325 233.173 230.275 174.933 231.8C116.693 233.325 58.24 239.425 29.2267 242.475L0 245.525V577.975Z"
            fill="#FF648F" />
        <path
            d="M0 715.225L29.2267 696.925C58.24 678.625 116.693 642.025 174.933 625.25C233.173 608.475 291.627 611.525 349.44 622.2C407.467 632.875 465.067 651.175 523.093 649.65C580.907 648.125 639.36 626.775 697.6 638.975C755.84 651.175 814.293 696.925 872.533 710.65C930.773 724.375 989.227 706.075 1047.47 684.725C1105.71 663.375 1164.16 638.975 1222.4 626.775C1280.64 614.575 1339.09 614.575 1396.91 606.95C1454.93 599.325 1512.53 584.075 1570.56 590.175C1628.37 596.275 1686.83 623.725 1745.07 614.575C1803.31 605.425 1861.76 559.675 1890.77 536.8L1920 513.925V373.625L1890.77 388.875C1861.76 404.125 1803.31 434.625 1745.07 442.25C1686.83 449.875 1628.37 434.625 1570.56 431.575C1512.53 428.525 1454.93 437.675 1396.91 431.575C1339.09 425.475 1280.64 404.125 1222.4 423.95C1164.16 443.775 1105.71 504.775 1047.47 529.175C989.227 553.575 930.773 541.375 872.533 518.5C814.293 495.625 755.84 462.075 697.6 451.4C639.36 440.725 580.907 452.925 523.093 460.55C465.067 468.175 407.467 471.225 349.44 471.225C291.627 471.225 233.173 468.175 174.933 484.95C116.693 501.725 58.24 538.325 29.2267 556.625L0 574.925V715.225Z"
            fill="#ED67C2" />
        <path
            d="M0 916.525H29.2267C58.24 916.525 116.693 916.525 174.933 916.525C233.173 916.525 291.627 916.525 349.44 916.525C407.467 916.525 465.067 916.525 523.093 916.525C580.907 916.525 639.36 916.525 697.6 916.525C755.84 916.525 814.293 916.525 872.533 916.525C930.773 916.525 989.227 916.525 1047.47 916.525C1105.71 916.525 1164.16 916.525 1222.4 916.525C1280.64 916.525 1339.09 916.525 1396.91 916.525C1454.93 916.525 1512.53 916.525 1570.56 916.525C1628.37 916.525 1686.83 916.525 1745.07 916.525C1803.31 916.525 1861.76 916.525 1890.77 916.525H1920V510.875L1890.77 533.75C1861.76 556.625 1803.31 602.375 1745.07 611.525C1686.83 620.675 1628.37 593.225 1570.56 587.125C1512.53 581.025 1454.93 596.275 1396.91 603.9C1339.09 611.525 1280.64 611.525 1222.4 623.725C1164.16 635.925 1105.71 660.325 1047.47 681.675C989.227 703.025 930.773 721.325 872.533 707.6C814.293 693.875 755.84 648.125 697.6 635.925C639.36 623.725 580.907 645.075 523.093 646.6C465.067 648.125 407.467 629.825 349.44 619.15C291.627 608.475 233.173 605.425 174.933 622.2C116.693 638.975 58.24 675.575 29.2267 693.875L0 712.175V916.525Z"
            fill="#B97BF1" />
    </g>
    <defs>
        <clipPath id="clip0_295_920">
            <rect width="1920" height="915" fill="white" />
        </clipPath>
    </defs>
</svg>