<svg width="1920" height="1421" viewBox="0 0 1920 1421" fill="none" xmlns="http://www.w3.org/2000/svg">
    <g clip-path="url(#clip0_295_973)">
        <path d="M1920 0H0V1421H1920V0Z" fill="#FFA41C" />
        <path
            d="M1920 896.651C1824.85 908.73 1729.92 920.808 1670.4 852.837C1611.09 784.629 1587.2 636.134 1563.95 544.243C1540.48 452.115 1517.65 416.353 1440.21 386.986C1362.77 357.618 1230.93 334.882 1167.36 271.411C1103.57 208.176 1108.05 103.97 1112.32 0H1920V896.651Z"
            fill="#1298F1" />
        <path
            d="M0 524.349C67.2 604.162 134.4 683.975 206.933 713.816C279.68 743.42 357.76 723.052 446.507 738.92C535.04 754.788 634.453 807.128 653.44 894.046C672.213 980.964 610.56 1102.7 622.933 1196.25C635.093 1290.03 721.493 1355.4 807.68 1421H0V524.349Z"
            fill="#1298F1" />
    </g>
    <defs>
        <clipPath id="clip0_295_973">
            <rect width="1920" height="1421" fill="white" />
        </clipPath>
    </defs>
</svg>