<svg width="4500" height="1080" viewBox="0 0 4500 1080" fill="none" xmlns="http://www.w3.org/2000/svg">
<g clip-path="url(#clip0_500_832)">
<path d="M0 89.0465L107.5 91.1173C215 93.1882 430 97.3299 644 97.3299C858.5 97.3299 1071.5 93.1882 1286 99.4007C1500 105.613 1715 122.18 1929 118.038C2143.5 113.897 2356.5 89.0465 2571 82.8339C2785 76.6214 3000 89.0465 3214 99.4007C3428.5 109.755 3641.5 118.038 3856 130.463C4070 142.889 4285 159.455 4392.5 167.739L4500 176.022V0H4392.5C4285 0 4070 0 3856 0C3641.5 0 3428.5 0 3214 0C3000 0 2785 0 2571 0C2356.5 0 2143.5 0 1929 0C1715 0 1500 0 1286 0C1071.5 0 858.5 0 644 0C430 0 215 0 107.5 0H0V89.0465Z" fill="#B97BF1"/>
<path d="M0 412.485L107.5 406.723C215 400.96 430 389.436 644 402.881C858.5 416.326 1071.5 454.741 1286 477.79C1500 500.839 1715 508.522 1929 487.394C2143.5 466.266 2356.5 416.326 2571 402.881C2785 389.436 3000 412.485 3214 395.198C3428.5 377.912 3641.5 320.289 3856 337.576C4070 354.863 4285 447.058 4392.5 493.156L4500 539.254V155.105L4392.5 147.422C4285 139.739 4070 124.373 3856 112.849C3641.5 101.324 3428.5 93.6414 3214 84.0377C3000 74.434 2785 62.9095 2571 68.6717C2356.5 74.434 2143.5 97.4829 1929 101.324C1715 105.166 1500 89.7999 1286 84.0377C1071.5 78.2754 858.5 82.1169 644 82.1169C430 82.1169 215 78.2754 107.5 76.3547L0 74.434V412.485Z" fill="#93A6FC"/>
<path d="M0 608.324L107.5 592.537C215 576.75 430 545.176 644 551.491C858.5 557.806 1071.5 602.009 1286 636.741C1500 671.472 1715 696.731 1929 658.843C2143.5 620.954 2356.5 519.917 2571 507.287C2785 494.658 3000 570.435 3214 567.278C3428.5 564.12 3641.5 482.028 3856 510.445C4070 538.861 4285 677.787 4392.5 747.25L4500 816.713V526.232L4392.5 450.454C4285 374.676 4070 223.121 3856 194.704C3641.5 166.288 3428.5 261.01 3214 289.426C3000 317.843 2785 279.954 2571 302.056C2356.5 324.158 2143.5 406.25 1929 440.982C1715 475.713 1500 463.084 1286 425.195C1071.5 387.306 858.5 324.158 644 302.056C430 279.954 215 298.899 107.5 308.371L0 317.843V608.324Z" fill="#9AC3EF"/>
<path d="M0 790.2L107.5 777.6C215 765 430 739.8 644 720C858.5 700.2 1071.5 685.8 1286 693C1500 700.2 1715 729 1929 725.4C2143.5 721.8 2356.5 685.8 2571 696.6C2785 707.4 3000 765 3214 766.8C3428.5 768.6 3641.5 714.6 3856 716.4C4070 718.2 4285 775.8 4392.5 804.6L4500 833.4V667.8L4392.5 628.2C4285 588.6 4070 509.4 3856 493.2C3641.5 477 3428.5 523.8 3214 525.6C3000 527.4 2785 484.2 2571 491.4C2356.5 498.6 2143.5 556.2 1929 577.8C1715 599.4 1500 585 1286 565.2C1071.5 545.4 858.5 520.2 644 516.6C430 513 215 531 107.5 540L0 549V790.2Z" fill="#9AC3EF"/>
<path d="M0 878.324L107.5 882.853C215 887.382 430 896.441 644 905.499C858.5 914.558 1071.5 923.617 1286 928.146C1500 932.675 1715 932.675 1929 919.087C2143.5 905.499 2356.5 878.324 2571 889.647C2785 900.97 3000 950.792 3214 964.38C3428.5 977.968 3641.5 955.322 3856 959.851C4070 964.38 4285 996.085 4392.5 1011.94L4500 1027.79V778.68L4392.5 742.445C4285 706.211 4070 633.743 3856 631.478C3641.5 629.213 3428.5 697.153 3214 694.888C3000 692.623 2785 620.155 2571 606.567C2356.5 592.979 2143.5 638.272 1929 642.801C1715 647.33 1500 611.096 1286 602.038C1071.5 592.979 858.5 611.096 644 636.007C430 660.918 215 692.623 107.5 708.476L0 724.328V878.324Z" fill="#93A6FC"/>
<path d="M0 1081.49H107.5C215 1081.49 430 1081.49 644 1081.49C858.5 1081.49 1071.5 1081.49 1286 1081.49C1500 1081.49 1715 1081.49 1929 1081.49C2143.5 1081.49 2356.5 1081.49 2571 1081.49C2785 1081.49 3000 1081.49 3214 1081.49C3428.5 1081.49 3641.5 1081.49 3856 1081.49C4070 1081.49 4285 1081.49 4392.5 1081.49H4500V1000.39L4392.5 982.651C4285 964.91 4070 929.428 3856 924.36C3641.5 919.291 3428.5 944.635 3214 929.428C3000 914.222 2785 858.465 2571 845.794C2356.5 833.122 2143.5 863.534 1929 878.741C1715 893.947 1500 893.947 1286 888.878C1071.5 883.809 858.5 873.672 644 863.534C430 853.397 215 843.259 107.5 838.19L0 833.122V1081.49Z" fill="#B97BF1"/>
</g>
<defs>
<clipPath id="clip0_500_832">
<rect width="4500" height="1080" fill="white"/>
</clipPath>
</defs>
</svg>
