<svg width="4500" height="1080" viewBox="0 0 4500 1080" fill="none" xmlns="http://www.w3.org/2000/svg">
<g clip-path="url(#clip0_500_845)">
<path d="M4500 0H0V1080H4500V0Z" fill="#B97BF1"/>
<path d="M0 527.4L107.5 516.24C215 505.26 430 482.94 644 455.76C858.5 428.4 1071.5 396 1286 374.4C1500 352.8 1715 342 1929 317.7C2143.5 293.4 2356.5 255.6 2571 270.36C2785 284.94 3000 352.26 3214 362.7C3428.5 373.14 3641.5 327.06 3856 313.56C4070 300.06 4285 319.14 4392.5 328.86L4500 338.4V1081.8H4392.5C4285 1081.8 4070 1081.8 3856 1081.8C3641.5 1081.8 3428.5 1081.8 3214 1081.8C3000 1081.8 2785 1081.8 2571 1081.8C2356.5 1081.8 2143.5 1081.8 1929 1081.8C1715 1081.8 1500 1081.8 1286 1081.8C1071.5 1081.8 858.5 1081.8 644 1081.8C430 1081.8 215 1081.8 107.5 1081.8H0V527.4Z" fill="#B7D7F4"/>
<path d="M0 495L107.5 499.86C215 504.54 430 514.26 644 527.04C858.5 540 1071.5 556.2 1286 565.56C1500 574.74 1715 577.26 1929 585C2143.5 592.74 2356.5 606.06 2571 589.14C2785 572.4 3000 525.6 3214 484.2C3428.5 442.8 3641.5 406.8 3856 424.44C4070 442.26 4285 513.54 4392.5 549.36L4500 585V1081.8H4392.5C4285 1081.8 4070 1081.8 3856 1081.8C3641.5 1081.8 3428.5 1081.8 3214 1081.8C3000 1081.8 2785 1081.8 2571 1081.8C2356.5 1081.8 2143.5 1081.8 1929 1081.8C1715 1081.8 1500 1081.8 1286 1081.8C1071.5 1081.8 858.5 1081.8 644 1081.8C430 1081.8 215 1081.8 107.5 1081.8H0V495Z" fill="#A8CDF2"/>
<path d="M0 660.6L107.5 642.96C215 625.14 430 589.86 644 601.56C858.5 613.26 1071.5 671.94 1286 666.9C1500 661.86 1715 592.74 1929 554.4C2143.5 516.06 2356.5 508.14 2571 514.8C2785 521.46 3000 542.34 3214 557.46C3428.5 572.4 3641.5 581.4 3856 572.94C4070 564.66 4285 538.74 4392.5 525.96L4500 513V1081.8H4392.5C4285 1081.8 4070 1081.8 3856 1081.8C3641.5 1081.8 3428.5 1081.8 3214 1081.8C3000 1081.8 2785 1081.8 2571 1081.8C2356.5 1081.8 2143.5 1081.8 1929 1081.8C1715 1081.8 1500 1081.8 1286 1081.8C1071.5 1081.8 858.5 1081.8 644 1081.8C430 1081.8 215 1081.8 107.5 1081.8H0V660.6Z" fill="#9AC3EF"/>
<path d="M0 810L107.5 806.76C215 803.34 430 796.86 644 784.44C858.5 772.2 1071.5 754.2 1286 749.16C1500 743.94 1715 751.86 1929 771.3C2143.5 790.74 2356.5 822.06 2571 827.46C2785 832.86 3000 812.34 3214 785.7C3428.5 759.06 3641.5 725.94 3856 738.54C4070 751.14 4285 809.46 4392.5 838.44L4500 867.6V1081.8H4392.5C4285 1081.8 4070 1081.8 3856 1081.8C3641.5 1081.8 3428.5 1081.8 3214 1081.8C3000 1081.8 2785 1081.8 2571 1081.8C2356.5 1081.8 2143.5 1081.8 1929 1081.8C1715 1081.8 1500 1081.8 1286 1081.8C1071.5 1081.8 858.5 1081.8 644 1081.8C430 1081.8 215 1081.8 107.5 1081.8H0V810Z" fill="#86B2E4"/>
<path d="M0 837L107.5 840.06C215 842.94 430 849.06 644 853.74C858.5 858.6 1071.5 862.2 1286 870.3C1500 878.4 1715 891 1929 887.4C2143.5 883.8 2356.5 864 2571 876.24C2785 888.66 3000 932.94 3214 950.76C3428.5 968.4 3641.5 959.4 3856 935.46C4070 911.34 4285 872.46 4392.5 852.84L4500 833.4V1081.8H4392.5C4285 1081.8 4070 1081.8 3856 1081.8C3641.5 1081.8 3428.5 1081.8 3214 1081.8C3000 1081.8 2785 1081.8 2571 1081.8C2356.5 1081.8 2143.5 1081.8 1929 1081.8C1715 1081.8 1500 1081.8 1286 1081.8C1071.5 1081.8 858.5 1081.8 644 1081.8C430 1081.8 215 1081.8 107.5 1081.8H0V837Z" fill="#72A1D8"/>
</g>
<defs>
<clipPath id="clip0_500_845">
<rect width="4500" height="1080" fill="white"/>
</clipPath>
</defs>
</svg>
