<svg width="1920" height="854" viewBox="0 0 1920 854" fill="none" xmlns="http://www.w3.org/2000/svg">
    <g clip-path="url(#clip0_313_520)">
        <path
            d="M0 86.8233L29.2267 82.5533C58.24 78.2833 116.693 69.7433 174.933 65.4733C233.173 61.2033 291.627 61.2033 349.44 68.32C407.467 75.4367 465.067 89.67 523.093 93.94C580.907 98.21 639.36 92.5167 697.6 93.94C755.84 95.3633 814.293 103.903 872.533 98.21C930.773 92.5167 989.227 72.59 1047.47 75.4367C1105.71 78.2833 1164.16 103.903 1222.4 106.75C1280.64 109.597 1339.09 89.67 1396.91 85.4C1454.93 81.13 1512.53 92.5167 1570.56 98.21C1628.37 103.903 1686.83 103.903 1745.07 101.057C1803.31 98.21 1861.76 92.5167 1890.77 89.67L1920 86.8233V0H1890.77C1861.76 0 1803.31 0 1745.07 0C1686.83 0 1628.37 0 1570.56 0C1512.53 0 1454.93 0 1396.91 0C1339.09 0 1280.64 0 1222.4 0C1164.16 0 1105.71 0 1047.47 0C989.227 0 930.773 0 872.533 0C814.293 0 755.84 0 697.6 0C639.36 0 580.907 0 523.093 0C465.067 0 407.467 0 349.44 0C291.627 0 233.173 0 174.933 0C116.693 0 58.24 0 29.2267 0H0V86.8233Z"
            fill="#9B5AD7" />
        <path
            d="M0 223.463L29.2267 244.813C58.24 266.163 116.693 308.863 174.933 315.98C233.173 323.097 291.627 294.63 349.44 278.973C407.467 263.317 465.067 260.47 523.093 266.163C580.907 271.857 639.36 286.09 697.6 308.863C755.84 331.637 814.293 362.95 872.533 357.257C930.773 351.563 989.227 308.863 1047.47 294.63C1105.71 280.397 1164.16 294.63 1222.4 283.243C1280.64 271.857 1339.09 234.85 1396.91 269.01C1454.93 303.17 1512.53 408.497 1570.56 417.037C1628.37 425.577 1686.83 337.33 1745.07 318.827C1803.31 300.323 1861.76 351.563 1890.77 377.183L1920 402.803V83.9767L1890.77 86.8233C1861.76 89.67 1803.31 95.3633 1745.07 98.21C1686.83 101.057 1628.37 101.057 1570.56 95.3633C1512.53 89.67 1454.93 78.2833 1396.91 82.5533C1339.09 86.8233 1280.64 106.75 1222.4 103.903C1164.16 101.057 1105.71 75.4367 1047.47 72.59C989.227 69.7433 930.773 89.67 872.533 95.3633C814.293 101.057 755.84 92.5167 697.6 91.0933C639.36 89.67 580.907 95.3633 523.093 91.0933C465.067 86.8233 407.467 72.59 349.44 65.4733C291.627 58.3567 233.173 58.3567 174.933 62.6267C116.693 66.8967 58.24 75.4367 29.2267 79.7067L0 83.9767V223.463Z"
            fill="#BF86F3" />
        <path
            d="M0 308.863L29.2267 333.06C58.24 357.257 116.693 405.65 174.933 429.847C233.173 454.043 291.627 454.043 349.44 438.387C407.467 422.73 465.067 391.417 523.093 392.84C580.907 394.263 639.36 428.423 697.6 468.277C755.84 508.13 814.293 553.677 872.533 553.677C930.773 553.677 989.227 508.13 1047.47 473.97C1105.71 439.81 1164.16 417.037 1222.4 397.11C1280.64 377.183 1339.09 360.103 1396.91 399.957C1454.93 439.81 1512.53 536.597 1570.56 552.253C1628.37 567.91 1686.83 502.437 1745.07 481.087C1803.31 459.737 1861.76 482.51 1890.77 493.897L1920 505.283V399.957L1890.77 374.337C1861.76 348.717 1803.31 297.477 1745.07 315.98C1686.83 334.483 1628.37 422.73 1570.56 414.19C1512.53 405.65 1454.93 300.323 1396.91 266.163C1339.09 232.003 1280.64 269.01 1222.4 280.397C1164.16 291.783 1105.71 277.55 1047.47 291.783C989.227 306.017 930.773 348.717 872.533 354.41C814.293 360.103 755.84 328.79 697.6 306.017C639.36 283.243 580.907 269.01 523.093 263.317C465.067 257.623 407.467 260.47 349.44 276.127C291.627 291.783 233.173 320.25 174.933 313.133C116.693 306.017 58.24 263.317 29.2267 241.967L0 220.617V308.863Z"
            fill="#CFA5F7" />
        <path
            d="M0 701.703L29.2267 708.82C58.24 715.937 116.693 730.17 174.933 734.44C233.173 738.71 291.627 733.017 349.44 738.71C407.467 744.403 465.067 761.483 523.093 765.753C580.907 770.023 639.36 761.483 697.6 764.33C755.84 767.177 814.293 781.41 872.533 778.563C930.773 775.717 989.227 755.79 1047.47 744.403C1105.71 733.017 1164.16 730.17 1222.4 724.477C1280.64 718.783 1339.09 710.243 1396.91 721.63C1454.93 733.017 1512.53 764.33 1570.56 767.177C1628.37 770.023 1686.83 744.403 1745.07 741.557C1803.31 738.71 1861.76 758.637 1890.77 768.6L1920 778.563V502.437L1890.77 491.05C1861.76 479.663 1803.31 456.89 1745.07 478.24C1686.83 499.59 1628.37 565.063 1570.56 549.407C1512.53 533.75 1454.93 436.963 1396.91 397.11C1339.09 357.257 1280.64 374.337 1222.4 394.263C1164.16 414.19 1105.71 436.963 1047.47 471.123C989.227 505.283 930.773 550.83 872.533 550.83C814.293 550.83 755.84 505.283 697.6 465.43C639.36 425.577 580.907 391.417 523.093 389.993C465.067 388.57 407.467 419.883 349.44 435.54C291.627 451.197 233.173 451.197 174.933 427C116.693 402.803 58.24 354.41 29.2267 330.213L0 306.017V701.703Z"
            fill="#BF86F3" />
        <path
            d="M0 855.423H29.2267C58.24 855.423 116.693 855.423 174.933 855.423C233.173 855.423 291.627 855.423 349.44 855.423C407.467 855.423 465.067 855.423 523.093 855.423C580.907 855.423 639.36 855.423 697.6 855.423C755.84 855.423 814.293 855.423 872.533 855.423C930.773 855.423 989.227 855.423 1047.47 855.423C1105.71 855.423 1164.16 855.423 1222.4 855.423C1280.64 855.423 1339.09 855.423 1396.91 855.423C1454.93 855.423 1512.53 855.423 1570.56 855.423C1628.37 855.423 1686.83 855.423 1745.07 855.423C1803.31 855.423 1861.76 855.423 1890.77 855.423H1920V775.717L1890.77 765.753C1861.76 755.79 1803.31 735.863 1745.07 738.71C1686.83 741.557 1628.37 767.177 1570.56 764.33C1512.53 761.483 1454.93 730.17 1396.91 718.783C1339.09 707.397 1280.64 715.937 1222.4 721.63C1164.16 727.323 1105.71 730.17 1047.47 741.557C989.227 752.943 930.773 772.87 872.533 775.717C814.293 778.563 755.84 764.33 697.6 761.483C639.36 758.637 580.907 767.177 523.093 762.907C465.067 758.637 407.467 741.557 349.44 735.863C291.627 730.17 233.173 735.863 174.933 731.593C116.693 727.323 58.24 713.09 29.2267 705.973L0 698.857V855.423Z"
            fill="#9B5AD7" />
    </g>
    <defs>
        <clipPath id="clip0_313_520">
            <rect width="1920" height="854" fill="white" />
        </clipPath>
    </defs>
</svg>