<svg width="4500" height="1080" viewBox="0 0 4500 1080" fill="none" xmlns="http://www.w3.org/2000/svg">
<g clip-path="url(#clip0_500_859)">
<path d="M0 109.8L68.5 104.4C136.5 99 273.5 88.2 410 82.8C546.5 77.4 683.5 77.4 819 86.4C955 95.4 1090 113.4 1226 118.8C1361.5 124.2 1498.5 117 1635 118.8C1771.5 120.6 1908.5 131.4 2045 124.2C2181.5 117 2318.5 91.8 2455 95.4C2591.5 99 2728.5 131.4 2865 135C3001.5 138.6 3138.5 113.4 3274 108C3410 102.6 3545 117 3681 124.2C3816.5 131.4 3953.5 131.4 4090 127.8C4226.5 124.2 4363.5 117 4431.5 113.4L4500 109.8V0H4431.5C4363.5 0 4226.5 0 4090 0C3953.5 0 3816.5 0 3681 0C3545 0 3410 0 3274 0C3138.5 0 3001.5 0 2865 0C2728.5 0 2591.5 0 2455 0C2318.5 0 2181.5 0 2045 0C1908.5 0 1771.5 0 1635 0C1498.5 0 1361.5 0 1226 0C1090 0 955 0 819 0C683.5 0 546.5 0 410 0C273.5 0 136.5 0 68.5 0H0V109.8Z" fill="#9B5AD7"/>
<path d="M0 282.6L68.5 309.6C136.5 336.6 273.5 390.6 410 399.6C546.5 408.6 683.5 372.6 819 352.8C955 333 1090 329.4 1226 336.6C1361.5 343.8 1498.5 361.8 1635 390.6C1771.5 419.4 1908.5 459 2045 451.8C2181.5 444.6 2318.5 390.6 2455 372.6C2591.5 354.6 2728.5 372.6 2865 358.2C3001.5 343.8 3138.5 297 3274 340.2C3410 383.4 3545 516.6 3681 527.4C3816.5 538.2 3953.5 426.6 4090 403.2C4226.5 379.8 4363.5 444.6 4431.5 477L4500 509.4V106.2L4431.5 109.8C4363.5 113.4 4226.5 120.6 4090 124.2C3953.5 127.8 3816.5 127.8 3681 120.6C3545 113.4 3410 98.9999 3274 104.4C3138.5 109.8 3001.5 135 2865 131.4C2728.5 127.8 2591.5 95.3999 2455 91.7999C2318.5 88.1999 2181.5 113.4 2045 120.6C1908.5 127.8 1771.5 117 1635 115.2C1498.5 113.4 1361.5 120.6 1226 115.2C1090 109.8 955 91.7999 819 82.7999C683.5 73.7999 546.5 73.7999 410 79.1999C273.5 84.5999 136.5 95.3999 68.5 100.8L0 106.2V282.6Z" fill="#BF86F3"/>
<path d="M0 390.6L68.5 421.2C136.5 451.8 273.5 513 410 543.6C546.5 574.2 683.5 574.2 819 554.4C955 534.6 1090 495 1226 496.8C1361.5 498.6 1498.5 541.8 1635 592.2C1771.5 642.6 1908.5 700.2 2045 700.2C2181.5 700.2 2318.5 642.6 2455 599.4C2591.5 556.2 2728.5 527.4 2865 502.2C3001.5 477 3138.5 455.4 3274 505.8C3410 556.2 3545 678.6 3681 698.4C3816.5 718.2 3953.5 635.4 4090 608.4C4226.5 581.4 4363.5 610.2 4431.5 624.6L4500 639V505.8L4431.5 473.4C4363.5 441 4226.5 376.2 4090 399.6C3953.5 423 3816.5 534.6 3681 523.8C3545 513 3410 379.8 3274 336.6C3138.5 293.4 3001.5 340.2 2865 354.6C2728.5 369 2591.5 351 2455 369C2318.5 387 2181.5 441 2045 448.2C1908.5 455.4 1771.5 415.8 1635 387C1498.5 358.2 1361.5 340.2 1226 333C1090 325.8 955 329.4 819 349.2C683.5 369 546.5 405 410 396C273.5 387 136.5 333 68.5 306L0 279V390.6Z" fill="#CFA5F7"/>
<path d="M0 887.4L68.5 896.4C136.5 905.4 273.5 923.4 410 928.8C546.5 934.2 683.5 927 819 934.2C955 941.4 1090 963 1226 968.4C1361.5 973.8 1498.5 963 1635 966.6C1771.5 970.2 1908.5 988.2 2045 984.6C2181.5 981 2318.5 955.8 2455 941.4C2591.5 927 2728.5 923.4 2865 916.2C3001.5 909 3138.5 898.2 3274 912.6C3410 927 3545 966.6 3681 970.2C3816.5 973.8 3953.5 941.4 4090 937.8C4226.5 934.2 4363.5 959.4 4431.5 972L4500 984.6V635.4L4431.5 621C4363.5 606.6 4226.5 577.8 4090 604.8C3953.5 631.8 3816.5 714.6 3681 694.8C3545 675 3410 552.6 3274 502.2C3138.5 451.8 3001.5 473.4 2865 498.6C2728.5 523.8 2591.5 552.6 2455 595.8C2318.5 639 2181.5 696.6 2045 696.6C1908.5 696.6 1771.5 639 1635 588.6C1498.5 538.2 1361.5 495 1226 493.2C1090 491.4 955 531 819 550.8C683.5 570.6 546.5 570.6 410 540C273.5 509.4 136.5 448.2 68.5 417.6L0 387V887.4Z" fill="#BF86F3"/>
<path d="M0 1081.8H68.5C136.5 1081.8 273.5 1081.8 410 1081.8C546.5 1081.8 683.5 1081.8 819 1081.8C955 1081.8 1090 1081.8 1226 1081.8C1361.5 1081.8 1498.5 1081.8 1635 1081.8C1771.5 1081.8 1908.5 1081.8 2045 1081.8C2181.5 1081.8 2318.5 1081.8 2455 1081.8C2591.5 1081.8 2728.5 1081.8 2865 1081.8C3001.5 1081.8 3138.5 1081.8 3274 1081.8C3410 1081.8 3545 1081.8 3681 1081.8C3816.5 1081.8 3953.5 1081.8 4090 1081.8C4226.5 1081.8 4363.5 1081.8 4431.5 1081.8H4500V981L4431.5 968.4C4363.5 955.8 4226.5 930.6 4090 934.2C3953.5 937.8 3816.5 970.2 3681 966.6C3545 963 3410 923.4 3274 909C3138.5 894.6 3001.5 905.4 2865 912.6C2728.5 919.8 2591.5 923.4 2455 937.8C2318.5 952.2 2181.5 977.4 2045 981C1908.5 984.6 1771.5 966.6 1635 963C1498.5 959.4 1361.5 970.2 1226 964.8C1090 959.4 955 937.8 819 930.6C683.5 923.4 546.5 930.6 410 925.2C273.5 919.8 136.5 901.8 68.5 892.8L0 883.8V1081.8Z" fill="#9B5AD7"/>
</g>
<defs>
<clipPath id="clip0_500_859">
<rect width="4500" height="1080" fill="white"/>
</clipPath>
</defs>
</svg>
