<svg width="1922" height="1826" viewBox="0 0 1922 1826" fill="none" xmlns="http://www.w3.org/2000/svg">
    <g clip-path="url(#clip0_284_911)">
        <path d="M1922 0H0V1826H1922V0Z" fill="#B97BF1" />
        <path
            d="M0 891.697L45.9144 872.828C91.8289 854.264 183.658 816.526 275.06 770.572C366.675 724.313 457.65 669.533 549.265 633.013C640.667 596.493 732.496 578.233 823.897 537.148C915.513 496.063 1006.49 432.153 1098.1 457.109C1189.5 481.76 1281.33 595.58 1372.74 613.232C1464.35 630.883 1555.33 552.974 1646.94 530.149C1738.34 507.324 1830.17 539.583 1876.09 556.017L1922 572.147V1829.04H1876.09C1830.17 1829.04 1738.34 1829.04 1646.94 1829.04C1555.33 1829.04 1464.35 1829.04 1372.74 1829.04C1281.33 1829.04 1189.5 1829.04 1098.1 1829.04C1006.49 1829.04 915.513 1829.04 823.897 1829.04C732.496 1829.04 640.667 1829.04 549.265 1829.04C457.65 1829.04 366.675 1829.04 275.06 1829.04C183.658 1829.04 91.8289 1829.04 45.9144 1829.04H0V891.697Z"
            fill="#B7D7F4" />
        <path
            d="M0 836.917L45.9144 845.134C91.8289 853.046 183.658 869.48 275.06 891.088C366.675 913 457.65 940.39 549.265 956.215C640.667 971.736 732.496 975.997 823.897 989.083C915.513 1002.17 1006.49 1024.69 1098.1 996.083C1189.5 967.78 1281.33 888.653 1372.74 818.657C1464.35 748.66 1555.33 687.793 1646.94 717.618C1738.34 747.747 1830.17 868.263 1876.09 928.825L1922 989.083V1829.04H1876.09C1830.17 1829.04 1738.34 1829.04 1646.94 1829.04C1555.33 1829.04 1464.35 1829.04 1372.74 1829.04C1281.33 1829.04 1189.5 1829.04 1098.1 1829.04C1006.49 1829.04 915.513 1829.04 823.897 1829.04C732.496 1829.04 640.667 1829.04 549.265 1829.04C457.65 1829.04 366.675 1829.04 275.06 1829.04C183.658 1829.04 91.8289 1829.04 45.9144 1829.04H0V836.917Z"
            fill="#A8CDF2" />
        <path
            d="M0 1116.9L45.9144 1087.08C91.8289 1056.95 183.658 997.3 275.06 1017.08C366.675 1036.86 457.65 1136.08 549.265 1127.56C640.667 1119.03 732.496 1002.17 823.897 937.347C915.513 872.524 1006.49 859.133 1098.1 870.393C1189.5 881.654 1281.33 916.956 1372.74 942.52C1464.35 967.78 1555.33 982.997 1646.94 968.693C1738.34 954.694 1830.17 910.87 1876.09 889.262L1922 867.35V1829.04H1876.09C1830.17 1829.04 1738.34 1829.04 1646.94 1829.04C1555.33 1829.04 1464.35 1829.04 1372.74 1829.04C1281.33 1829.04 1189.5 1829.04 1098.1 1829.04C1006.49 1829.04 915.513 1829.04 823.897 1829.04C732.496 1829.04 640.667 1829.04 549.265 1829.04C457.65 1829.04 366.675 1829.04 275.06 1829.04C183.658 1829.04 91.8289 1829.04 45.9144 1829.04H0V1116.9Z"
            fill="#9AC3EF" />
        <path
            d="M0 1369.5L45.9144 1364.02C91.8289 1358.24 183.658 1347.28 275.06 1326.28C366.675 1305.59 457.65 1275.16 549.265 1266.64C640.667 1257.81 732.496 1271.2 823.897 1304.07C915.513 1336.94 1006.49 1389.89 1098.1 1399.02C1189.5 1408.15 1281.33 1373.46 1372.74 1328.41C1464.35 1283.37 1555.33 1227.38 1646.94 1248.68C1738.34 1269.98 1830.17 1368.59 1876.09 1417.58L1922 1466.89V1829.04H1876.09C1830.17 1829.04 1738.34 1829.04 1646.94 1829.04C1555.33 1829.04 1464.35 1829.04 1372.74 1829.04C1281.33 1829.04 1189.5 1829.04 1098.1 1829.04C1006.49 1829.04 915.513 1829.04 823.897 1829.04C732.496 1829.04 640.667 1829.04 549.265 1829.04C457.65 1829.04 366.675 1829.04 275.06 1829.04C183.658 1829.04 91.8289 1829.04 45.9144 1829.04H0V1369.5Z"
            fill="#86B2E4" />
        <path
            d="M0 1415.15L45.9144 1420.32C91.8289 1425.19 183.658 1435.54 275.06 1443.45C366.675 1451.67 457.65 1457.76 549.265 1471.45C640.667 1485.15 732.496 1506.45 823.897 1500.36C915.513 1494.28 1006.49 1460.8 1098.1 1481.49C1189.5 1502.49 1281.33 1577.36 1372.74 1607.49C1464.35 1637.31 1555.33 1622.1 1646.94 1581.62C1738.34 1540.84 1830.17 1475.1 1876.09 1441.93L1922 1409.06V1829.04H1876.09C1830.17 1829.04 1738.34 1829.04 1646.94 1829.04C1555.33 1829.04 1464.35 1829.04 1372.74 1829.04C1281.33 1829.04 1189.5 1829.04 1098.1 1829.04C1006.49 1829.04 915.513 1829.04 823.897 1829.04C732.496 1829.04 640.667 1829.04 549.265 1829.04C457.65 1829.04 366.675 1829.04 275.06 1829.04C183.658 1829.04 91.8289 1829.04 45.9144 1829.04H0V1415.15Z"
            fill="#72A1D8" />
    </g>
    <defs>
        <clipPath id="clip0_284_911">
            <rect width="1922" height="1826" fill="white" />
        </clipPath>
    </defs>
</svg>