<svg width="1920" height="870" viewBox="0 0 1920 870" fill="none" xmlns="http://www.w3.org/2000/svg">
    <g clip-path="url(#clip0_295_966)">
        <path d="M1920 0H0V870H1920V0Z" fill="#B97BF1" />
        <path
            d="M0 337.85L275.2 291.45L548.267 368.3L823.467 362.5L1096.53 361.05L1371.73 259.55L1644.8 246.5L1920 346.55V871.45H1644.8H1371.73H1096.53H823.467H548.267H275.2H0V337.85Z"
            fill="#FFC17B" />
        <path
            d="M0 337.85L275.2 385.7L548.267 330.6L823.467 392.95L1096.53 391.5L1371.73 446.6L1644.8 390.05L1920 421.95V871.45H1644.8H1371.73H1096.53H823.467H548.267H275.2H0V337.85Z"
            fill="#FFB35E" />
        <path
            d="M0 487.2L275.2 517.65L548.267 469.8L823.467 479.95L1096.53 482.85L1371.73 551L1644.8 568.4L1920 504.6V871.45H1644.8H1371.73H1096.53H823.467H548.267H275.2H0V487.2Z"
            fill="#FFA43F" />
        <path
            d="M0 669.9L275.2 601.75L548.267 593.05L823.467 581.45L1096.53 649.6L1371.73 585.8L1644.8 580L1920 653.95V871.45H1644.8H1371.73H1096.53H823.467H548.267H275.2H0V669.9Z"
            fill="#E08E34" />
        <path
            d="M0 778.65L275.2 742.4L548.267 756.9L823.467 740.95L1096.53 754L1371.73 703.25L1644.8 778.65L1920 698.9V871.45H1644.8H1371.73H1096.53H823.467H548.267H275.2H0V778.65Z"
            fill="#C1782A" />
    </g>
    <defs>
        <clipPath id="clip0_295_966">
            <rect width="1920" height="870" fill="white" />
        </clipPath>
    </defs>
</svg>