<svg width="4500" height="1080" viewBox="0 0 4500 1080" fill="none" xmlns="http://www.w3.org/2000/svg">
<g clip-path="url(#clip0_500_852)">
<path d="M4500 0H0V1080H4500V0Z" fill="#B97BF1"/>
<path d="M0 419.4L645 361.8L1285 457.2L1930 450L2570 448.2L3215 322.2L3855 306L4500 430.2V1081.8H3855H3215H2570H1930H1285H645H0V419.4Z" fill="#FFC17B"/>
<path d="M0 419.4L645 478.8L1285 410.4L1930 487.8L2570 486L3215 554.4L3855 484.2L4500 523.8V1081.8H3855H3215H2570H1930H1285H645H0V419.4Z" fill="#FFB35E"/>
<path d="M0 604.8L645 642.6L1285 583.2L1930 595.8L2570 599.4L3215 684L3855 705.6L4500 626.4V1081.8H3855H3215H2570H1930H1285H645H0V604.8Z" fill="#FFA43F"/>
<path d="M0 831.6L645 747L1285 736.2L1930 721.8L2570 806.4L3215 727.2L3855 720L4500 811.8V1081.8H3855H3215H2570H1930H1285H645H0V831.6Z" fill="#E08E34"/>
<path d="M0 966.6L645 921.6L1285 939.6L1930 919.8L2570 936L3215 873L3855 966.6L4500 867.6V1081.8H3855H3215H2570H1930H1285H645H0V966.6Z" fill="#C1782A"/>
</g>
<defs>
<clipPath id="clip0_500_852">
<rect width="4500" height="1080" fill="white"/>
</clipPath>
</defs>
</svg>
