<svg width="24" height="26" viewBox="0 0 24 26" fill="none" xmlns="http://www.w3.org/2000/svg">
	<path
		d="M7.24286 0.898828L6.85714 1.625H1.71429C0.766071 1.625 0 2.35117 0 3.25C0 4.14883 0.766071 4.875 1.71429 4.875H22.2857C23.2339 4.875 24 4.14883 24 3.25C24 2.35117 23.2339 1.625 22.2857 1.625H17.1429L16.7571 0.898828C16.4679 0.345313 15.8732 0 15.225 0H8.775C8.12679 0 7.53214 0.345313 7.24286 0.898828ZM22.2857 6.5H1.71429L2.85 23.7148C2.93571 24.9996 4.06071 26 5.41607 26H18.5839C19.9393 26 21.0643 24.9996 21.15 23.7148L22.2857 6.5Z"
		fill="#191919" />
</svg>